<mxfile host="app.diagrams.net" modified="2024-04-29T14:11:22.011Z" agent="Mozilla/5.0 (Windows NT 10.0; Win64; x64) AppleWebKit/537.36 (KHTML, like Gecko) Chrome/124.0.0.0 Safari/537.36" etag="YmcfcaM04lbGFUaBRyKB" version="24.2.5" type="device">
  <diagram name="PÃ¡gina-1" id="b7p1hUoSPlKnjKZJy-jH">
    <mxGraphModel dx="1050" dy="557" grid="1" gridSize="10" guides="1" tooltips="1" connect="1" arrows="1" fold="1" page="1" pageScale="1" pageWidth="827" pageHeight="1169" math="0" shadow="0">
      <root>
        <mxCell id="0" />
        <mxCell id="1" parent="0" />
        <mxCell id="1r6XWADpsbeSySu1uu3I-1" value="" style="whiteSpace=wrap;html=1;aspect=fixed;fillColor=none;" vertex="1" parent="1">
          <mxGeometry x="170" y="100" width="450" height="450" as="geometry" />
        </mxCell>
        <mxCell id="1r6XWADpsbeSySu1uu3I-2" value="windows 11 pro (23H2)" style="text;html=1;align=center;verticalAlign=middle;resizable=0;points=[];autosize=1;strokeColor=default;fillColor=none;" vertex="1" parent="1">
          <mxGeometry x="170" y="70" width="150" height="30" as="geometry" />
        </mxCell>
        <mxCell id="1r6XWADpsbeSySu1uu3I-3" value="" style="whiteSpace=wrap;html=1;aspect=fixed;fillColor=none;" vertex="1" parent="1">
          <mxGeometry x="230" y="160" width="360" height="360" as="geometry" />
        </mxCell>
        <mxCell id="1r6XWADpsbeSySu1uu3I-4" value="VMware workstation pro" style="text;html=1;align=center;verticalAlign=middle;whiteSpace=wrap;rounded=0;strokeColor=default;" vertex="1" parent="1">
          <mxGeometry x="230" y="120" width="60" height="40" as="geometry" />
        </mxCell>
        <mxCell id="1r6XWADpsbeSySu1uu3I-6" value="Linux/Ubuntu 22.04.06" style="text;html=1;align=center;verticalAlign=middle;whiteSpace=wrap;rounded=0;strokeColor=default;" vertex="1" parent="1">
          <mxGeometry x="270" y="200" width="90" height="40" as="geometry" />
        </mxCell>
        <mxCell id="1r6XWADpsbeSySu1uu3I-7" value="" style="whiteSpace=wrap;html=1;aspect=fixed;" vertex="1" parent="1">
          <mxGeometry x="270" y="240" width="240" height="240" as="geometry" />
        </mxCell>
        <mxCell id="1r6XWADpsbeSySu1uu3I-8" value="memory:4GB/processors:2/Hard Disk: 22GB" style="text;html=1;align=center;verticalAlign=middle;whiteSpace=wrap;rounded=0;strokeColor=default;" vertex="1" parent="1">
          <mxGeometry x="290" y="120" width="300" height="40" as="geometry" />
        </mxCell>
        <mxCell id="1r6XWADpsbeSySu1uu3I-10" value="Network Adapter: bridget/replicate physical network conection state" style="text;html=1;align=center;verticalAlign=middle;whiteSpace=wrap;rounded=0;strokeColor=default;" vertex="1" parent="1">
          <mxGeometry x="360" y="200" width="150" height="40" as="geometry" />
        </mxCell>
      </root>
    </mxGraphModel>
  </diagram>
</mxfile>
